<?xml version="1.0" standalone="no"?><!DOCTYPE svg PUBLIC "-//W3C//DTD SVG 1.1//EN" "http://www.w3.org/Graphics/SVG/1.1/DTD/svg11.dtd"><svg t="1641270962001" class="icon" viewBox="0 0 1024 1024" version="1.1" xmlns="http://www.w3.org/2000/svg" p-id="837" xmlns:xlink="http://www.w3.org/1999/xlink" width="500" height="500"><defs><style type="text/css"></style></defs><path d="M399.4 986.566l20.958 14.075c-108.241-23.302-198.559-78.888-275.044-156.985C67.536 764.237 27.67 666.395 12.735 556.179L2.361 587.796c0.167-51.043-1.211-102.031 9.89-152.847-4.084 6.158-8.167 12.32-12.251 18.48 17.923-73.23 35.333-146.416 92.304-201.764 45.179-43.892 98.278-63.538 161.084-55.842 3.47 0.425 6.896 1.271 10.311 2.06 1.658 0.382 3.242 1.085 5.185 1.755l-7.744 45.42c39.717-59.147 84.97-103.519 160.61-98.907-2.245 2.394-4.415 4.861-6.746 7.166-33.178 32.819-56.846 70.812-67.132 117.04-11.12 49.977 1.704 93.613 31.203 133.864 15.188 20.727 9.97 43.565 7.274 66.005a2094.32 2094.32 0 0 0-3.313 1.752c-3.047-3.765-5.72-7.923-9.196-11.239-53.975-51.51-133.616-36.249-163.923 32.196-23.754 53.647-11.504 102.833 22.406 148.209 4.185 5.602 9.085 10.666 15.377 14.804-1.805-2.364-3.598-4.739-5.417-7.093-29.986-38.797-43.755-81.598-30.054-130.202 11.487-40.753 49.569-71.662 86.609-71.896 15.288-0.099 28.135 3.975 40.925 12.798-32.057 36.593-34.148 80.855-29.873 125.51 4.18 43.645 25.684 78.905 60.962 105.396 2.803 2.105 6.221 3.814 8.18 6.55 12.53 17.48 30.839 22.773 50.792 26.345 18.224 3.263 36.074 8.647 54.032 13.321 2.558 0.667 4.788 2.591 9.393 5.186h-33.706c9.563 11.29 22.138 15.768 35.239 19.161 30.228 7.83 60.054 2.579 89.751-3.254 17.734-3.484 35.268-7.982 54.035-12.289l-4.102 14.087c14.35-7.193 25.33-16.033 34.152-27.86 3.965-5.315 8.057-10.724 13.008-15.041 2.982-2.599 7.729-3.18 11.701-4.673 0.965 5.999 1.621 10.079 2.275 14.159 4.457-1.557 9.564-2.195 13.264-4.821 26.01-18.451 41.672-44.669 51.121-74.189 9.258-28.928 15.98-58.667 24.307-89.896 3.984 7.74 8.014 15.57 13.105 25.468 3.961-22.339 10.34-43.531 10.865-64.872 0.742-30.006-2.695-60.128-4.688-90.181-0.879-13.253-2.596-26.45-4.168-41.973 19.729 11.187 32.006 26.298 42.764 43.81 0.541-45.359 0.217-91.214-18.629-133.178-18.713-41.678-44.443-79.57-80.137-109.681 18.217-3.938 40.719 6.123 86.227 37.612-16.805-29.527-37.828-56.032-62.818-78.849-24.686-22.539-51.287-42.977-77.064-65.868 27.838 11.114 55.947 21.605 83.43 33.537 22.717 9.864 42.279 24.704 60.178 41.965 33.049 31.869 67.289 62.575 93.998 100.722-1.486-2.926-2.836-5.928-4.48-8.764-22.393-38.654-51.145-72.24-83.76-102.421-9.193-8.508-12.365-17.059-9.24-30.839 22.793 16.815 45.109 32.586 62.59 55.675l3.211-9.103c79.887 69.995 104.33 158.951 94.088 260.732 1.123 0.239 2.248 0.476 3.369 0.713 5.322-11.799 10.645-23.598 16.896-37.466 3.771 20.564 8.064 39.687 10.672 59.033 6.779 50.281 4.324 99.446-18.965 146.03-8.619 17.238-15.447 35.366-23.547 52.878-4.113 8.896-5.496 17.185-3.025 27.202 7.467 30.248 3.299 59.198-12.785 86.237C931 808.42 889.73 850.922 834.965 879.683c-3.809 2-6.781 5.755-9.83 8.99-1.9 2.021-3.322 4.528-4.766 6.937-26.988 45.06-69.166 66.569-118.482 78.438-56.543 13.607-113.375 23.802-171.771 22.976-1.646-0.022-3.297 0.215-7.514 0.509 5.766 5.271 9.92 9.066 15.578 14.235-49.206 1.042-93.669-11.669-137.486-27.795l-1.294 2.593zM330.551 539.815c30.562 26.677 63.055 44.142 102.401 46.313 19.192 1.061 36.571-3.956 53.109-13.795 35.554-21.146 71.622-18.897 107.308-0.197 11.676 6.119 19.527 16.006 22.369 29.171 2.658 12.324-3.664 19.971-16.018 17.538-16.303-3.208-29.145 1.133-41.633 11.713-11.463 9.715-24.744 17.248-36.953 26.12-31.904 23.187-68.509 26.426-106.295 26.805-14.03 0.14-24.631-4.06-35.124-12.685-41.247-33.916-54.142-78.135-49.164-130.983zM163.19 174.818l-14.089-13.415c144.476-157.965 418.26-207.039 625.337-66.1-7.316-3.004-14.438-6.659-21.98-8.886-21.164-6.249-42.555-11.732-63.762-17.846-25.578-7.375-50.689-16.81-76.645-22.376C444.363 10.229 297.16 50.148 171.319 167.22c-2.307 2.148-4.607 4.306-8.129 7.598zM397.458 393.019c-27.626-35.266-40.626-75.436-26.984-123.71 15.395 17.05 34.979 15.945 54.21 16.513 18.903 0.559 37.863 0.798 56.667 2.562 13.473 1.265 16.823 6.157 15.696 19.729-1.61 19.407-8.152 35.25-27.542 44.831-24.368 12.04-47.613 26.35-72.047 40.075zM62.661 250.576c2.922-51.191 12.769-99.574 50.396-141.279 2.531 32.158 14.329 57.411 38.021 77.834-35.197 14.473-62.952 37.037-88.417 63.445z" p-id="838" fill="#e65b28"></path></svg>