<?xml version="1.0" standalone="no"?><!DOCTYPE svg PUBLIC "-//W3C//DTD SVG 1.1//EN" "http://www.w3.org/Graphics/SVG/1.1/DTD/svg11.dtd"><svg t="1640931415611" class="icon" viewBox="0 0 1024 1024" version="1.1" xmlns="http://www.w3.org/2000/svg" p-id="1064" width="500" height="500" xmlns:xlink="http://www.w3.org/1999/xlink"><defs><style type="text/css"></style></defs><path d="M722.7 691.1c-45.9 0-89.4-12.3-126-35.6-35-22.3-61.4-54-74.2-89.1l-9.5-26.1-9.5 26.1c-12.8 35.2-39.2 66.8-74.2 89.1-36.5 23.3-80.1 35.6-126 35.6-115.5 0-209.4-79.2-209.4-176.6 0-97.4 93.9-176.6 209.4-176.6 45.9 0 89.4 12.3 126 35.6 35 22.3 61.4 54 74.2 89.1l9.5 26.1 9.5-26.1c12.8-35.2 39.2-66.8 74.2-89.1 36.5-23.3 80.1-35.6 126-35.6 115.5 0 209.4 79.2 209.4 176.6 0 97.4-94 176.6-209.4 176.6z m0-311.1c-86.3 0-156.5 60.4-156.5 134.6 0 74.2 70.2 134.6 156.5 134.6s156.5-60.4 156.5-134.6c0-74.2-70.2-134.6-156.5-134.6z m-419.4 0c-86.3 0-156.5 60.4-156.5 134.6 0 74.2 70.2 134.6 156.5 134.6s156.5-60.4 156.5-134.6c0-74.2-70.2-134.6-156.5-134.6z" fill="#1296db" p-id="1065"></path><path d="M722.7 348.1c109.9 0 199.3 74.7 199.3 166.4S832.6 681 722.7 681c-43.9 0-85.6-11.7-120.5-34-16.6-10.6-31.1-23.2-43-37.5-11.9-14.3-21.1-30-27.1-46.6l-17.6-48.4 17.6-48.4c6-16.6 15.2-32.3 27.1-46.6 11.9-14.3 26.4-26.9 43-37.5 34.9-22.1 76.5-33.9 120.5-33.9m0 311.2c91.9 0 166.6-64.9 166.6-144.7 0-79.8-74.7-144.7-166.6-144.7s-166.6 64.9-166.6 144.7c0 79.8 74.7 144.7 166.6 144.7M303.3 348.1c43.9 0 85.6 11.7 120.5 34 16.6 10.6 31.1 23.2 43 37.5 11.9 14.3 21.1 30 27.1 46.6l17.6 48.4L494 563c-6 16.6-15.2 32.3-27.1 46.6-11.9 14.3-26.4 26.9-43 37.5-34.9 22.2-76.6 34-120.5 34-109.9 0-199.3-74.7-199.3-166.4s89.3-166.6 199.2-166.6m0 311.2c91.9 0 166.6-64.9 166.6-144.7 0-79.8-74.7-144.7-166.6-144.7s-166.6 64.9-166.6 144.7c0 79.8 74.7 144.7 166.6 144.7m419.4-331.4c-98.6 0-182 55.3-209.7 131.3-27.7-76.1-111.1-131.3-209.7-131.3-121.2 0-219.5 83.6-219.5 186.7s98.3 186.7 219.5 186.7c98.6 0 182-55.3 209.7-131.3 27.7 76.1 111.1 131.3 209.7 131.3 121.2 0 219.5-83.6 219.5-186.7s-98.3-186.7-219.5-186.7z m0 311.1c-80.8 0-146.3-55.7-146.3-124.5 0-68.7 65.5-124.5 146.3-124.5 80.8 0 146.3 55.7 146.3 124.5S803.5 639 722.7 639z m-419.4 0C222.5 639 157 583.3 157 514.6s65.5-124.5 146.3-124.5c80.8 0 146.3 55.7 146.3 124.5 0 68.7-65.5 124.4-146.3 124.4zM105.5 262.8c-22.4 0-40.5-18.1-40.5-40.5s18.1-40.5 40.5-40.5 40.5 18.1 40.5 40.5c0 22.3-18.1 40.5-40.5 40.5zM513 262.8c-22.4 0-40.5-18.1-40.5-40.5s18.1-40.5 40.5-40.5 40.5 18.1 40.5 40.5c0 22.3-18.1 40.5-40.5 40.5zM920.5 262.8c-22.4 0-40.5-18.1-40.5-40.5s18.1-40.5 40.5-40.5 40.5 18.1 40.5 40.5c0 22.3-18.1 40.5-40.5 40.5z" fill="#1296db" p-id="1066"></path><path d="M105.5 847.4c-22.4 0-40.5-18.1-40.5-40.5s18.1-40.5 40.5-40.5 40.5 18.1 40.5 40.5-18.1 40.5-40.5 40.5zM513 847.4c-22.4 0-40.5-18.1-40.5-40.5s18.1-40.5 40.5-40.5 40.5 18.1 40.5 40.5-18.1 40.5-40.5 40.5zM920.5 847.4c-22.4 0-40.5-18.1-40.5-40.5s18.1-40.5 40.5-40.5 40.5 18.1 40.5 40.5-18.1 40.5-40.5 40.5z" fill="#1296db" p-id="1067"></path></svg>