<?xml version="1.0" standalone="no"?><!DOCTYPE svg PUBLIC "-//W3C//DTD SVG 1.1//EN" "http://www.w3.org/Graphics/SVG/1.1/DTD/svg11.dtd"><svg t="1641271243923" class="icon" viewBox="0 0 1024 1024" version="1.1" xmlns="http://www.w3.org/2000/svg" p-id="2825" xmlns:xlink="http://www.w3.org/1999/xlink" width="500" height="500"><defs><style type="text/css"></style></defs><path d="M511.713 1023.99956c-222.773685 0.306-414.818413-160.747772-453.608357-380.402461-40.536943-229.554675 95.954864-453.314358 317.59155-520.966263 3.279995-1.000999 7.563989-4.164994 8.131988-6.97499 0.510999-2.528996-2.743996-7.34799-5.550992-8.777987-28.37796-14.45798-41.170942-39.970943-32.744953-66.444906C354.143224 13.381991 383.780182-3.845985 413.508139 0.737009c47.828932 7.37299 66.329906 57.450919 39.868944 88.899874-1.805997 2.145997-0.543999 8.343988 1.260998 11.545984 1.226998 2.174997 6.014991 3.618995 9.011987 3.330995 49.53293-4.752993 98.98986-3.332995 147.148792 8.789988 182.018742 45.820935 302.848571 158.787775 347.192508 341.037517 44.353937 182.282742-10.547985 338.582521-151.843785 462.373345-79.476887 69.630901-187.321735 107.138848-294.434583 107.284848z m-0.072999-848.911798c-214.481696-0.036-388.031451 173.177755-388.352451 387.600451-0.321 213.739697 173.629754 388.14245 387.647452 388.65045 214.328697 0.509999 388.807449-173.883754 388.651449-388.46945-0.152-214.664696-173.306755-387.745451-387.94645-387.781451z m-72.613898-91.70887c13.335981-14.43498 15.383978-32.387954 5.827992-48.019932-11.031984-18.047974-34.300951-26.310963-55.535921-19.723972-18.924973 5.871992-32.066955 22.553968-31.837955 40.416943 0.239 18.761973 13.318981 34.895951 32.014954 39.490944 16.449977-17.377975 28.25596-20.367971 49.53093-12.163983zM172.593481 630.230118c-18.341974-69.810901-5.117993-175.273752 45.512935-250.773645 8.314988 5.270993 16.462977 10.990984 25.178965 15.648978 2.945996 1.574998 7.33199 0.458999 11.059984 0.573999-1.505998-3.682995-1.990997-8.677988-4.712993-10.796985-7.611989-5.922992-16.150977-10.655985-25.254965-16.451977 52.055926-74.131895 121.132828-121.717828 209.974703-143.592796 2.125997 9.498987 4.029994 18.483974 6.179991 27.411961 1.112998 4.619993 1.866997 11.016984 8.538988 8.788987 2.222997-0.742999 3.923994-7.30699 3.483995-10.918984-1.080998-8.863987-3.545995-17.560975-5.447992-26.292963 64.844908-17.051976 169.864759-6.263991 247.698649 45.405936-5.243993 8.375988-10.944985 16.571977-15.541978 25.348964-1.490998 2.848996-0.083 7.21499 0 10.886984 3.361995-1.364998 7.962989-1.785997 9.856986-4.270994 5.857992-7.682989 10.685985-16.150977 15.863978-24.241965 56.25692 24.492965 137.794805 142.215799 142.707798 206.086708-7.975989 1.816997-16.206977 3.161996-24.021966 5.763992-2.776996 0.924999-4.537994 4.903993-6.762991 7.487989 3.060996 1.487998 6.299991 4.506994 9.151987 4.176994 8.161988-0.944999 16.165977-3.249995 25.629964-5.325992 16.013977 88.429875 2.118997 170.374759-43.669938 248.005649-8.187988-5.113993-15.509978-10.336985-23.462967-14.30598-2.728996-1.360998-7.02099 0.408999-10.598985 0.749999 1.357998 3.110996 1.875997 7.31999 4.234994 9.125987 7.10399 5.441992 14.927979 9.950986 22.965968 15.142979-50.871928 74.449895-118.929832 122.969826-206.736708 145.959793-2.281997-10.171986-3.836995-19.713972-6.77499-28.807959-1.070998-3.317995-5.438992-5.571992-8.304988-8.310989-1.197998 3.538995-3.778995 7.26599-3.333996 10.586985 1.279998 9.555986 3.781995 18.948973 6.008992 29.370959-89.279874 17.306975-172.178756 2.795996-250.988645-43.325939 6.482991-10.284985 12.897982-19.653972 18.314974-29.568958 1.523998-2.788996 0.126-7.17799 0.068-10.832985-3.374995 1.372998-8.048989 1.788997-9.895986 4.288994-6.74799 9.147987-12.553982 18.993973-19.143973 29.241959-75.191894-51.643927-123.735825-120.582829-146.390792-209.450704 9.957986-2.291997 19.452972-3.949994 28.560959-6.83599 3.552995-1.123998 6.231991-5.007993 9.308987-7.634989-3.974994-1.479998-8.137988-4.564994-11.889983-4.127994-9.228987 1.078998-18.269974 3.773995-27.366961 5.813992z m136.063807 178.032747l1.424998 1.550998c2.070997-1.672998 4.257994-3.223995 6.194991-5.038993 74.274895-69.673901 148.54179-139.354803 222.729685-209.120703 2.983996-2.807996 5.592992-6.195991 7.713989-9.712987 53.236925-88.341875 106.388849-176.73475 159.519774-265.137624 1.233998-2.051997 2.071997-4.342994 3.882994-8.206989-2.436997 1.592998-3.090996 1.893997-3.587994 2.360997-76.085892 71.295899-152.179785 142.582798-228.165677 213.986697-3.219995 3.022996-5.760992 6.92399-8.068989 10.745985-26.927962 44.593937-53.746924 89.256874-80.600886 133.89481-27.009962 44.894936-54.027923 89.785873-81.042885 134.677809zM486.302036 662.460072l0.535 3.977994c4.296994 0.734999 8.631988 2.249997 12.883981 2.045997 9.571986-0.455999 13.663981 4.551994 17.182976 12.782982 13.092981 30.613957 26.925962 60.909914 40.518943 91.310871 1.393998 3.114996 3.039996 6.116991 4.567993 9.168987l3.724995-0.830999c0-34.700951 0.535999-69.414902-0.257-104.098852-0.33-14.40498 0.916999-26.593962 15.606978-33.524953 2.681996-1.265998 5.068993-3.866995 6.752991-6.407991 4.473994-6.75899 9.530987-6.96599 16.706976-3.954994 15.670978 6.576991 31.740955 12.206983 47.647933 18.224974 1.244998-1.520998 2.486996-3.044996 3.733994-4.563994-11.751983-10.293985-23.251967-20.88897-35.33695-30.774956-8.444988-6.91099-11.728983-14.10398-6.82299-24.759965 2.395997-5.203993 3.395995-11.446984 3.430995-17.228976 0.041-6.422991 3.058996-8.858987 8.353988-11.187984 32.705954-14.37898 65.273908-29.072959 97.862862-43.714938 2.256997-1.012999 4.314994-2.465997 6.464991-3.712995-0.182-1.091998-0.364999-2.184997-0.544-3.276995-38.140946 0-76.281892 0.074-114.420838-0.036-14.479979-0.045-18.178974 4.777993-13.312981 18.105975 24.367965 66.759905-30.073957 136.467807-100.255858 128.745817-4.811993-0.532999-10.006986 2.390997-15.024979 3.710995z m-17.059975-320.090547l-1.850998 0.437v9.923986c-0.001 33.363953-0.361999 66.731906 0.231 100.084858 0.167 9.341987-1.491998 15.466978-10.820985 19.391972-5.901992 2.480996-11.166984 7.11099-15.844977 11.672984-4.186994 4.080994-7.801989 4.227994-12.920982 2.285997-17.092976-6.489991-34.351951-12.534982-51.547927-18.750974-0.508999 0.684999-1.017999 1.370998-1.525998 2.057997 12.573982 12.279983 25.013965 24.703965 37.796947 36.761948 4.161994 3.923994 4.935993 7.11299 2.426996 12.559982-3.453995 7.497989-4.873993 15.921977-8.183988 23.500967-1.822997 4.172994-4.973993 9.005987-8.818988 10.859985-33.132953 15.961977-66.566906 31.300956-99.891858 46.866933-2.243997 1.049999-4.318994 2.461997-8.947988 5.130993 40.817942 0 78.637889 0.021 116.457835-0.012 11.124984-0.011 15.061979-6.116991 13.302982-17.440975-1.795997-11.561984-4.066994-23.612967-2.643997-35.013951 6.575991-52.686925 47.416933-86.833877 100.616858-85.211879 7.08899 0.216 13.457981 0.344 15.105978-4.255994-5.740992-6.707991-11.289984-11.079984-14.06498-16.792976-13.342981-27.463961-25.920963-55.297922-38.808945-82.982883-3.282995-7.05999-6.705991-14.05298-10.065985-21.07397zM541.353958 563.413212c-0.134 16.322977-13.86098 29.597958-30.195957 29.201959-15.940977-0.384999-28.875959-13.502981-29.035959-29.447958-0.163-16.208977 13.335981-29.674958 29.794958-29.719958 16.340977-0.045 29.575958 13.424981 29.436958 29.965957z" p-id="2826" fill="#44a6ec"></path></svg>